<?xml version="1.0" standalone="no"?>
<!DOCTYPE svg PUBLIC "-//W3C//DTD SVG 20010904//EN"
 "http://www.w3.org/TR/2001/REC-SVG-20010904/DTD/svg10.dtd">
<svg version="1.0" xmlns="http://www.w3.org/2000/svg"
 width="1280.000000pt" height="1280.000000pt" viewBox="0 0 1280.000000 1280.000000"
 preserveAspectRatio="xMidYMid meet">
<metadata>
Created by potrace 1.11, written by Peter Selinger 2001-2013
</metadata>
<g transform="translate(0.000000,1280.000000) scale(0.100000,-0.100000)"
fill="#000000" stroke="none">
<path d="M6088 12795 c-2 -2 -46 -6 -98 -9 -52 -4 -117 -9 -145 -11 -140 -13
-178 -17 -195 -20 -10 -2 -45 -6 -77 -10 -32 -3 -71 -8 -88 -10 -108 -17 -155
-25 -205 -35 -25 -5 -58 -11 -75 -14 -263 -39 -803 -194 -1140 -328 -263 -104
-727 -325 -814 -387 -16 -12 -32 -21 -35 -21 -22 0 -397 -244 -588 -381 -94
-69 -290 -220 -308 -239 -3 -3 -25 -21 -50 -41 -25 -20 -57 -47 -71 -60 -14
-13 -66 -60 -115 -104 -463 -418 -899 -961 -1229 -1530 -142 -243 -339 -660
-442 -933 -150 -399 -288 -927 -339 -1302 -4 -30 -8 -57 -9 -60 -1 -3 -5 -34
-9 -70 -5 -36 -10 -72 -11 -80 -2 -8 -6 -51 -10 -95 -4 -44 -9 -88 -11 -98
-25 -136 -24 -960 1 -1107 2 -14 7 -59 10 -100 3 -41 10 -104 15 -140 5 -36
12 -87 15 -115 7 -54 12 -86 19 -125 3 -14 8 -42 11 -63 10 -70 84 -417 109
-507 8 -30 24 -91 36 -135 58 -218 199 -611 308 -855 188 -426 457 -882 745
-1265 66 -88 123 -162 126 -165 3 -3 40 -45 81 -95 253 -305 565 -610 895
-876 705 -566 1527 -977 2415 -1207 149 -39 427 -97 555 -117 214 -33 396 -54
620 -72 194 -15 836 -7 970 12 17 2 59 7 95 10 63 5 113 11 175 19 17 3 53 8
80 11 826 110 1736 441 2468 897 191 119 594 404 653 463 6 6 31 27 54 46 446
358 912 878 1260 1403 434 656 771 1461 919 2196 6 30 14 66 17 80 3 14 7 39
10 55 2 17 9 50 14 75 10 50 18 97 35 205 2 17 7 56 10 88 4 32 8 67 10 77 5
25 19 180 32 340 9 121 10 683 0 817 -8 124 -17 217 -22 258 -2 17 -9 71 -15
120 -27 227 -50 362 -106 610 -49 220 -93 381 -161 590 -241 739 -616 1429
-1112 2045 -47 58 -87 107 -90 110 -3 3 -33 36 -66 75 -149 174 -443 467 -605
605 -14 12 -36 31 -50 43 -14 12 -47 40 -75 62 -27 22 -59 48 -70 58 -107 97
-583 427 -759 527 -17 9 -83 47 -147 83 -479 272 -1092 508 -1664 641 -240 55
-434 89 -660 116 -49 6 -101 13 -115 15 -14 2 -61 6 -105 10 -44 3 -102 8
-130 11 -54 6 -742 14 -747 9z"/>
</g>
</svg>
